{"glyphs":{"0":{"ha":772,"x_min":42,"x_max":731,"o":"m 386 961 q 647 829 558 961 q 731 472 731 704 q 647 115 731 240 q 386 -17 558 -17 q 125 115 214 -17 q 42 472 42 240 q 125 829 42 704 q 386 961 214 961 m 386 806 q 228 472 228 806 q 386 139 228 139 q 544 472 544 139 q 386 806 544 806 z "},"1":{"ha":772,"x_min":129,"x_max":528,"o":"m 358 0 l 358 564 q 343 639 358 621 q 279 657 328 657 l 129 657 l 129 771 l 157 771 q 328 818 274 771 q 389 944 369 856 l 528 944 l 528 0 l 358 0 z "},"2":{"ha":772,"x_min":67,"x_max":706,"o":"m 236 583 l 67 596 q 143 860 67 765 q 392 961 226 961 q 609 881 526 961 q 692 668 692 801 q 626 454 692 554 q 474 290 576 378 q 297 147 386 218 l 706 147 l 706 0 l 67 0 l 67 147 q 333 356 214 236 q 497 653 497 521 q 371 797 497 797 q 236 583 236 797 z "},"3":{"ha":772,"x_min":51,"x_max":721,"o":"m 319 425 l 319 572 l 388 572 q 511 678 511 572 q 386 806 511 806 q 253 643 267 806 l 68 682 q 400 961 115 961 q 607 899 525 961 q 697 708 697 829 q 542 510 697 550 l 542 507 q 721 274 719 465 q 618 56 721 135 q 379 -17 524 -17 q 51 308 51 -17 l 229 308 q 385 139 229 139 q 488 179 450 139 q 526 285 526 219 q 388 425 526 425 l 319 425 z "},"4":{"ha":772,"x_min":33,"x_max":739,"o":"m 451 0 l 451 217 l 33 217 l 33 347 l 447 944 l 621 944 l 621 364 l 739 364 l 739 217 l 621 217 l 621 0 l 451 0 m 451 364 l 451 744 l 449 744 l 211 364 l 451 364 z "},"5":{"ha":772,"x_min":46,"x_max":726,"o":"m 78 425 l 144 944 l 672 944 l 654 781 l 289 781 l 260 583 q 429 650 335 650 q 653 554 574 650 q 726 326 726 467 q 628 76 726 168 q 375 -17 529 -17 q 147 51 235 -17 q 46 261 51 125 l 240 276 q 278 173 242 215 q 376 131 315 131 q 497 190 456 131 q 532 325 532 243 q 374 503 532 503 q 239 413 279 503 l 78 425 z "},"6":{"ha":772,"x_min":60,"x_max":713,"o":"m 703 721 l 524 697 q 411 806 515 806 q 278 704 321 806 q 246 518 246 628 l 249 518 q 433 606 308 606 q 638 520 564 606 q 713 294 713 435 q 624 72 713 161 q 397 -17 536 -17 q 60 449 60 -17 q 147 817 60 681 q 413 961 240 961 q 703 721 663 961 m 397 450 q 260 294 260 450 q 397 139 260 139 q 535 294 535 139 q 397 450 535 450 z "},"7":{"ha":772,"x_min":82,"x_max":706,"o":"m 82 772 l 82 944 l 706 944 l 706 789 q 501 458 597 685 q 385 0 401 219 l 157 0 q 503 772 208 404 l 82 772 z "},"8":{"ha":772,"x_min":35,"x_max":738,"o":"m 386 961 q 610 899 524 961 q 710 681 710 826 q 679 575 710 625 q 593 493 647 521 q 738 274 738 421 q 624 50 738 129 q 386 -17 526 -17 q 149 50 246 -17 q 35 274 35 129 q 179 493 35 421 q 93 575 125 521 q 63 681 63 625 q 163 899 63 826 q 386 961 249 961 m 229 274 q 386 139 229 139 q 543 274 543 139 q 386 408 543 408 q 229 274 229 408 m 249 681 q 386 556 249 556 q 524 681 524 556 q 386 806 524 806 q 249 681 249 806 z "},"9":{"ha":772,"x_min":60,"x_max":713,"o":"m 69 224 l 249 247 q 361 139 258 139 q 494 242 451 139 q 526 426 526 317 l 524 426 q 339 339 464 339 q 134 424 208 339 q 60 650 60 510 q 148 872 60 783 q 375 961 236 961 q 713 496 713 961 q 625 128 713 264 q 360 -17 532 -17 q 69 224 110 -17 m 375 494 q 513 650 513 494 q 375 806 513 806 q 238 650 238 806 q 375 494 238 494 z "}," ":{"ha":386,"x_min":0,"x_max":0,"o":""},"!":{"ha":361,"x_min":88,"x_max":274,"o":"m 274 989 l 274 606 l 219 254 l 142 254 l 88 606 l 88 989 l 274 989 m 88 0 l 88 192 l 274 192 l 274 0 l 88 0 z "},"\"":{"ha":540,"x_min":96,"x_max":444,"o":"m 314 603 l 314 989 l 444 989 l 444 603 l 314 603 m 96 603 l 96 989 l 226 989 l 226 603 l 96 603 z "},"#":{"ha":772,"x_min":40,"x_max":732,"o":"m 40 263 l 40 385 l 175 385 l 200 560 l 83 560 l 83 682 l 218 682 l 256 944 l 388 944 l 350 682 l 483 682 l 521 944 l 653 944 l 615 682 l 732 682 l 732 560 l 597 560 l 572 385 l 689 385 l 689 263 l 554 263 l 517 0 l 385 0 l 422 263 l 289 263 l 251 0 l 119 0 l 157 263 l 40 263 m 440 385 l 465 560 l 332 560 l 307 385 l 440 385 z "},"$":{"ha":772,"x_min":35,"x_max":738,"o":"m 453 378 l 453 139 q 523 187 494 153 q 551 265 551 221 q 453 378 551 350 m 35 143 l 179 251 q 331 139 224 160 l 331 418 q 138 511 183 474 q 54 699 54 576 q 140 888 54 813 q 331 961 219 958 l 331 1115 l 453 1115 l 453 961 q 603 914 526 958 q 721 801 681 869 l 593 701 q 453 806 535 794 l 453 575 q 651 482 592 532 q 738 285 738 411 q 639 61 738 149 q 453 -17 554 -12 l 453 -181 l 331 -181 l 331 -17 q 35 143 147 -10 m 331 611 l 331 806 q 240 708 240 789 q 331 611 240 635 z "},"%":{"ha":1389,"x_min":160,"x_max":1229,"o":"m 1004 486 q 1171 417 1113 486 q 1229 235 1229 347 q 1172 56 1229 122 q 1004 -17 1113 -17 q 836 56 896 -17 q 779 235 779 122 q 838 417 779 347 q 1004 486 896 486 m 1004 381 q 918 235 918 381 q 1004 89 918 89 q 1090 235 1090 89 q 1004 381 1090 381 m 344 -53 l 922 997 l 1043 997 l 465 -53 l 344 -53 m 385 961 q 551 892 493 961 q 610 710 610 822 q 553 531 610 597 q 385 458 493 458 q 217 531 276 458 q 160 710 160 597 q 218 892 160 822 q 385 961 276 961 m 385 856 q 299 710 299 856 q 385 564 299 564 q 471 710 471 564 q 385 856 471 856 z "},"&":{"ha":875,"x_min":40,"x_max":835,"o":"m 483 500 l 610 307 q 651 386 632 333 q 668 463 668 435 l 824 463 q 797 344 824 419 q 704 185 763 243 q 793 139 756 139 q 835 143 817 139 l 835 8 q 753 0 801 0 q 593 58 651 0 q 351 -17 474 -17 q 131 58 217 -17 q 40 269 40 138 q 106 444 40 361 q 250 560 163 517 q 201 706 201 638 q 272 872 201 807 q 446 936 342 936 q 607 878 546 936 q 668 728 668 819 q 615 583 668 642 q 483 500 572 538 m 499 186 l 332 432 q 244 373 279 415 q 210 276 210 331 q 257 167 210 207 q 363 131 299 131 q 499 186 440 131 m 444 806 q 390 782 408 806 q 371 729 371 758 q 415 625 371 681 q 521 726 521 646 q 500 783 521 761 q 444 806 479 806 z "},"'":{"ha":386,"x_min":128,"x_max":258,"o":"m 128 603 l 128 989 l 258 989 l 258 603 l 128 603 z "},"(":{"ha":489,"x_min":68,"x_max":460,"o":"m 415 1031 l 460 963 q 299 700 353 861 q 254 417 254 564 q 299 133 254 269 q 460 -129 353 -28 l 415 -197 q 158 76 242 -64 q 68 417 68 229 q 158 757 68 604 q 415 1031 242 897 z "},")":{"ha":489,"x_min":29,"x_max":421,"o":"m 74 -197 l 29 -129 q 190 133 136 -28 q 235 417 235 269 q 190 700 235 564 q 29 963 136 861 l 74 1031 q 331 757 247 897 q 421 417 421 604 q 331 76 421 229 q 74 -197 247 -64 z "},"*":{"ha":489,"x_min":31,"x_max":458,"o":"m 425 892 l 458 797 l 328 756 l 411 640 l 328 581 l 244 700 l 161 581 l 81 640 l 161 756 l 31 797 l 61 892 l 192 850 l 192 989 l 296 989 l 296 850 l 425 892 z "},"+":{"ha":833,"x_min":65,"x_max":768,"o":"m 347 0 l 347 282 l 65 282 l 65 421 l 347 421 l 347 703 l 486 703 l 486 421 l 768 421 l 768 282 l 486 282 l 486 0 l 347 0 z "},",":{"ha":386,"x_min":100,"x_max":286,"o":"m 100 0 l 100 192 l 286 192 l 286 -37 q 110 -194 286 -171 l 110 -110 q 181 -43 181 -103 l 181 0 l 100 0 z "},"-":{"ha":463,"x_min":58,"x_max":404,"o":"m 58 328 l 58 483 l 404 483 l 404 328 l 58 328 z "},".":{"ha":386,"x_min":100,"x_max":286,"o":"m 100 0 l 100 192 l 286 192 l 286 0 l 100 0 z "},"/":{"ha":643,"x_min":11,"x_max":632,"o":"m 11 -25 l 481 1014 l 632 1014 l 163 -25 l 11 -25 z "},":":{"ha":386,"x_min":100,"x_max":286,"o":"m 100 519 l 100 711 l 286 711 l 286 519 l 100 519 m 100 0 l 100 192 l 286 192 l 286 0 l 100 0 z "},";":{"ha":386,"x_min":100,"x_max":286,"o":"m 100 0 l 100 192 l 286 192 l 286 -37 q 110 -194 286 -171 l 110 -110 q 181 -43 181 -103 l 181 0 l 100 0 m 100 519 l 100 711 l 286 711 l 286 519 l 100 519 z "},"<":{"ha":1389,"x_min":0,"x_max":0,"o":""},"=":{"ha":1389,"x_min":0,"x_max":0,"o":""},">":{"ha":1389,"x_min":0,"x_max":0,"o":""},"?":{"ha":797,"x_min":54,"x_max":729,"o":"m 321 254 l 321 333 q 338 465 321 422 q 413 553 356 517 q 496 615 475 593 q 535 713 535 657 q 493 811 535 772 q 386 850 451 850 q 224 661 232 850 l 54 685 q 153 926 60 838 q 399 1014 246 1014 q 631 936 536 1014 q 729 719 729 853 q 679 556 729 622 q 549 443 643 510 q 476 306 476 393 l 476 254 l 321 254 m 306 0 l 306 192 l 492 192 l 492 0 l 306 0 z "},"@":{"ha":1111,"x_min":53,"x_max":1058,"o":"m 397 411 q 421 333 397 363 q 486 304 444 304 q 628 383 569 304 q 682 535 682 456 q 654 624 682 592 q 581 657 626 657 q 449 582 501 657 q 397 411 397 507 m 868 760 l 772 392 q 761 333 761 349 q 789 304 761 304 q 901 381 849 304 q 953 565 953 458 q 843 818 953 724 q 578 908 739 908 q 288 789 400 908 q 175 492 175 669 q 292 197 175 313 q 585 81 408 81 q 903 206 789 81 l 1013 206 q 579 -25 863 -25 q 201 122 350 -25 q 53 496 53 268 q 207 864 53 714 q 579 1014 361 1014 q 913 896 774 1014 q 1058 588 1058 774 q 929 282 1058 404 q 718 182 822 182 q 635 268 639 182 l 632 268 q 469 182 551 182 q 313 253 371 182 q 258 417 258 318 q 346 674 258 569 q 558 779 433 779 q 729 679 682 779 l 753 760 l 868 760 z "},"A":{"ha":746,"x_min":33,"x_max":697,"o":"m 671 489 l 671 118 q 697 0 671 42 l 518 0 q 501 64 501 25 q 272 -17 401 -17 q 101 44 169 -17 q 33 204 33 104 q 247 424 33 382 l 318 438 q 501 479 389 451 l 501 500 q 368 589 501 589 q 266 565 294 589 q 238 483 238 542 l 68 490 q 160 667 68 606 q 368 719 240 719 q 576 679 506 719 q 671 489 671 625 m 501 251 l 501 351 q 421 326 474 338 l 328 307 q 246 278 269 294 q 211 210 211 256 q 242 147 211 171 q 321 122 274 122 q 440 153 389 122 q 501 251 501 189 z "},"B":{"ha":797,"x_min":83,"x_max":758,"o":"m 83 0 l 83 989 l 253 989 l 253 643 q 453 719 336 719 q 672 613 586 719 q 758 351 758 506 q 672 90 758 197 q 453 -17 586 -17 q 256 68 326 -17 l 253 68 l 253 0 l 83 0 m 414 564 q 283 496 326 564 q 247 351 247 440 q 283 207 247 263 q 414 139 326 139 q 546 207 501 139 q 581 351 581 263 q 546 496 581 440 q 414 564 501 564 z "},"C":{"ha":721,"x_min":39,"x_max":704,"o":"m 696 519 l 547 451 q 490 533 531 503 q 399 564 449 564 q 263 499 313 564 q 217 351 217 439 q 258 204 217 263 q 389 139 306 139 q 560 275 504 139 l 704 199 q 386 -17 606 -17 q 132 89 228 -17 q 39 351 39 190 q 135 616 39 513 q 399 719 232 719 q 696 519 614 719 z "},"D":{"ha":797,"x_min":39,"x_max":714,"o":"m 383 564 q 253 496 296 564 q 217 351 217 440 q 253 207 217 263 q 383 139 296 139 q 515 207 471 139 q 550 351 550 263 q 515 496 550 440 q 383 564 471 564 m 544 0 l 544 68 l 542 68 q 344 -17 471 -17 q 125 90 211 -17 q 39 351 39 197 q 125 613 39 506 q 344 719 211 719 q 544 643 461 719 l 544 989 l 714 989 l 714 0 l 544 0 z "},"E":{"ha":772,"x_min":39,"x_max":744,"o":"m 736 311 l 217 311 q 275 186 218 236 q 399 139 326 139 q 601 239 531 139 l 744 156 q 399 -17 632 -17 q 133 89 232 -17 q 39 351 39 190 q 135 616 39 513 q 399 719 232 719 q 736 311 736 719 m 217 442 l 558 442 q 521 525 558 482 q 399 581 474 581 q 279 541 328 581 q 217 442 231 501 z "},"F":{"ha":438,"x_min":7,"x_max":431,"o":"m 110 0 l 110 581 l 7 581 l 7 703 l 110 703 l 110 814 q 317 989 110 989 q 431 985 375 989 l 431 838 q 375 842 404 842 q 279 753 279 842 l 279 703 l 431 703 l 431 581 l 279 581 l 279 0 l 110 0 z "},"G":{"ha":797,"x_min":39,"x_max":714,"o":"m 714 703 l 714 15 q 611 -185 714 -125 q 349 -233 526 -233 q 122 -157 199 -233 q 63 -15 63 -97 l 240 -15 q 385 -103 263 -103 q 544 39 544 -103 l 544 114 q 344 36 472 36 q 125 129 211 36 q 39 378 39 222 q 125 626 39 533 q 344 719 211 719 q 542 635 471 719 l 544 635 l 544 703 l 714 703 m 550 378 q 515 499 550 447 q 383 564 469 564 q 253 499 297 564 q 217 378 217 447 q 253 257 217 308 q 383 192 297 192 q 515 257 469 192 q 550 378 550 308 z "},"H":{"ha":797,"x_min":83,"x_max":714,"o":"m 83 0 l 83 989 l 253 989 l 253 633 l 256 633 q 457 719 322 719 q 631 669 565 719 q 714 465 714 604 l 714 0 l 544 0 l 544 417 q 419 556 544 556 q 289 490 332 556 q 253 361 253 439 l 253 0 l 83 0 z "},"I":{"ha":336,"x_min":83,"x_max":253,"o":"m 83 0 l 83 703 l 253 703 l 253 0 l 83 0 m 83 817 l 83 989 l 253 989 l 253 817 l 83 817 z "},"J":{"ha":336,"x_min":-4,"x_max":253,"o":"m 253 703 l 253 -76 q 18 -233 253 -233 l -4 -233 l -4 -78 l 3 -78 q 83 -19 83 -78 l 83 703 l 253 703 m 83 817 l 83 989 l 253 989 l 253 817 l 83 817 z "},"K":{"ha":746,"x_min":83,"x_max":765,"o":"m 83 0 l 83 989 l 253 989 l 253 439 l 519 703 l 739 703 l 467 429 l 765 0 l 558 0 l 349 315 l 253 221 l 253 0 l 83 0 z "},"L":{"ha":336,"x_min":83,"x_max":253,"o":"m 83 0 l 83 989 l 253 989 l 253 0 l 83 0 z "},"M":{"ha":1208,"x_min":83,"x_max":1125,"o":"m 83 0 l 83 703 l 253 703 l 253 633 q 456 719 336 719 q 663 614 615 719 q 879 719 742 719 q 1125 494 1125 719 l 1125 0 l 956 0 l 956 426 q 840 564 956 564 q 731 507 772 564 q 689 371 689 450 l 689 0 l 519 0 l 519 426 q 401 564 519 564 q 294 506 335 564 q 253 371 253 449 l 253 0 l 83 0 z "},"N":{"ha":772,"x_min":83,"x_max":689,"o":"m 689 0 l 689 703 l 519 703 l 519 633 l 517 633 q 325 719 446 719 q 83 481 83 719 l 83 0 l 253 0 l 253 429 q 369 556 253 556 q 475 511 435 556 q 519 371 519 463 l 519 0 l 689 0 z "},"O":{"ha":797,"x_min":39,"x_max":758,"o":"m 399 719 q 664 614 565 719 q 758 351 758 513 q 664 89 758 190 q 399 -17 565 -17 q 133 89 232 -17 q 39 351 39 190 q 135 616 39 513 q 399 719 232 719 m 399 564 q 263 499 313 564 q 217 351 217 439 q 263 204 217 264 q 399 139 313 139 q 535 204 485 139 q 581 351 581 264 q 535 499 581 439 q 399 564 485 564 z "},"P":{"ha":797,"x_min":83,"x_max":758,"o":"m 83 -225 l 83 703 l 253 703 l 253 643 l 256 643 q 456 719 339 719 q 673 613 588 719 q 758 351 758 506 q 672 90 758 197 q 453 -17 586 -17 q 253 68 328 -17 l 253 -225 l 83 -225 m 414 139 q 546 207 501 139 q 581 351 581 263 q 546 496 581 440 q 414 564 501 564 q 283 496 326 564 q 247 351 247 440 q 283 207 247 263 q 414 139 326 139 z "},"Q":{"ha":797,"x_min":39,"x_max":714,"o":"m 714 703 l 714 -225 l 544 -225 l 544 68 l 542 68 q 347 -17 476 -17 q 125 92 213 -17 q 39 351 39 196 q 124 613 39 506 q 342 719 210 719 q 457 700 410 719 q 542 643 493 685 l 544 643 l 544 703 l 714 703 m 383 139 q 515 207 471 139 q 550 351 550 263 q 515 496 550 440 q 383 564 471 564 q 253 496 296 564 q 217 351 217 440 q 253 207 217 263 q 383 139 296 139 z "},"R":{"ha":489,"x_min":83,"x_max":472,"o":"m 83 0 l 83 703 l 253 703 l 253 606 l 256 606 q 472 719 313 719 l 472 547 q 319 501 376 547 q 253 340 253 447 l 253 0 l 83 0 z "},"S":{"ha":694,"x_min":21,"x_max":674,"o":"m 654 592 l 536 481 q 360 581 492 579 q 231 513 231 582 q 346 443 231 465 q 558 393 519 411 q 674 229 674 343 q 578 43 674 110 q 361 -17 492 -17 q 21 111 133 -17 l 149 210 q 351 122 208 122 q 450 149 408 122 q 488 204 488 174 q 375 272 488 250 q 165 325 207 307 q 53 492 53 376 q 143 665 53 606 q 364 719 225 719 q 654 592 551 719 z "},"T":{"ha":438,"x_min":7,"x_max":431,"o":"m 110 703 l 110 951 l 279 951 l 279 703 l 431 703 l 431 581 l 279 581 l 279 225 q 293 161 279 179 q 356 139 310 139 q 431 147 356 139 l 431 8 q 296 -8 350 -8 q 110 161 110 -8 l 110 581 l 7 581 l 7 703 l 110 703 z "},"U":{"ha":797,"x_min":83,"x_max":714,"o":"m 714 703 l 714 0 l 544 0 l 544 69 l 542 69 q 340 -17 475 -17 q 167 33 232 -17 q 83 238 83 99 l 83 703 l 253 703 l 253 286 q 378 147 253 147 q 510 204 465 147 q 544 325 544 251 l 544 703 l 714 703 z "},"V":{"ha":644,"x_min":1,"x_max":643,"o":"m 233 0 l 1 703 l 181 703 l 321 217 l 324 217 l 464 703 l 643 703 l 411 0 l 233 0 z "},"W":{"ha":1031,"x_min":11,"x_max":1019,"o":"m 214 0 l 11 703 l 186 703 l 304 225 l 307 225 l 439 703 l 592 703 l 724 225 l 726 225 l 844 703 l 1019 703 l 817 0 l 650 0 l 517 471 l 514 471 l 381 0 l 214 0 z "},"X":{"ha":669,"x_min":-7,"x_max":676,"o":"m -7 0 l 236 379 l 25 703 l 222 703 l 335 531 l 447 703 l 644 703 l 433 379 l 676 0 l 474 0 l 335 222 l 196 0 l -7 0 z "},"Y":{"ha":643,"x_min":0,"x_max":643,"o":"m 643 703 l 413 -62 q 335 -196 383 -158 q 193 -233 286 -233 q 92 -224 146 -233 l 92 -72 q 158 -78 125 -78 q 217 -65 199 -78 q 253 -18 236 -53 l 0 703 l 182 703 l 333 192 l 336 192 l 468 703 l 643 703 z "},"Z":{"ha":668,"x_min":36,"x_max":632,"o":"m 36 0 l 36 131 l 408 556 l 75 556 l 75 703 l 632 703 l 632 572 l 264 147 l 632 147 l 632 0 l 36 0 z "},"[":{"ha":489,"x_min":93,"x_max":460,"o":"m 93 -156 l 93 989 l 460 989 l 460 850 l 271 850 l 271 -17 l 460 -17 l 460 -156 l 93 -156 z "},"\\":{"ha":643,"x_min":11,"x_max":632,"o":"m 163 1014 l 632 -25 l 481 -25 l 11 1014 l 163 1014 z "},"]":{"ha":489,"x_min":29,"x_max":396,"o":"m 396 989 l 396 -156 l 29 -156 l 29 -17 l 218 -17 l 218 850 l 29 850 l 29 989 l 396 989 z "},"^":{"ha":1389,"x_min":0,"x_max":0,"o":""},"_":{"ha":694,"x_min":0,"x_max":694,"o":"m 0 -174 l 0 -104 l 694 -104 l 694 -174 l 0 -174 z "},"`":{"ha":1389,"x_min":0,"x_max":0,"o":""},"a":{"ha":746,"x_min":33,"x_max":697,"o":"m 671 489 l 671 118 q 697 0 671 42 l 518 0 q 501 64 501 25 q 272 -17 401 -17 q 101 44 169 -17 q 33 204 33 104 q 247 424 33 382 l 318 438 q 501 479 389 451 l 501 500 q 368 589 501 589 q 266 565 294 589 q 238 483 238 542 l 68 490 q 160 667 68 606 q 368 719 240 719 q 576 679 506 719 q 671 489 671 625 m 501 251 l 501 351 q 421 326 474 338 l 328 307 q 246 278 269 294 q 211 210 211 256 q 242 147 211 171 q 321 122 274 122 q 440 153 389 122 q 501 251 501 189 z "},"b":{"ha":797,"x_min":83,"x_max":758,"o":"m 83 0 l 83 989 l 253 989 l 253 643 q 453 719 336 719 q 672 613 586 719 q 758 351 758 506 q 672 90 758 197 q 453 -17 586 -17 q 256 68 326 -17 l 253 68 l 253 0 l 83 0 m 414 564 q 283 496 326 564 q 247 351 247 440 q 283 207 247 263 q 414 139 326 139 q 546 207 501 139 q 581 351 581 263 q 546 496 581 440 q 414 564 501 564 z "},"c":{"ha":721,"x_min":39,"x_max":704,"o":"m 696 519 l 547 451 q 490 533 531 503 q 399 564 449 564 q 263 499 313 564 q 217 351 217 439 q 258 204 217 263 q 389 139 306 139 q 560 275 504 139 l 704 199 q 386 -17 606 -17 q 132 89 228 -17 q 39 351 39 190 q 135 616 39 513 q 399 719 232 719 q 696 519 614 719 z "},"d":{"ha":797,"x_min":39,"x_max":714,"o":"m 383 564 q 253 496 296 564 q 217 351 217 440 q 253 207 217 263 q 383 139 296 139 q 515 207 471 139 q 550 351 550 263 q 515 496 550 440 q 383 564 471 564 m 544 0 l 544 68 l 542 68 q 344 -17 471 -17 q 125 90 211 -17 q 39 351 39 197 q 125 613 39 506 q 344 719 211 719 q 544 643 461 719 l 544 989 l 714 989 l 714 0 l 544 0 z "},"e":{"ha":772,"x_min":39,"x_max":744,"o":"m 736 311 l 217 311 q 275 186 218 236 q 399 139 326 139 q 601 239 531 139 l 744 156 q 399 -17 632 -17 q 133 89 232 -17 q 39 351 39 190 q 135 616 39 513 q 399 719 232 719 q 736 311 736 719 m 217 442 l 558 442 q 521 525 558 482 q 399 581 474 581 q 279 541 328 581 q 217 442 231 501 z "},"f":{"ha":438,"x_min":7,"x_max":431,"o":"m 110 0 l 110 581 l 7 581 l 7 703 l 110 703 l 110 814 q 317 989 110 989 q 431 985 375 989 l 431 838 q 375 842 404 842 q 279 753 279 842 l 279 703 l 431 703 l 431 581 l 279 581 l 279 0 l 110 0 z "},"g":{"ha":797,"x_min":39,"x_max":714,"o":"m 714 703 l 714 15 q 611 -185 714 -125 q 349 -233 526 -233 q 122 -157 199 -233 q 63 -15 63 -97 l 240 -15 q 385 -103 263 -103 q 544 39 544 -103 l 544 114 q 344 36 472 36 q 125 129 211 36 q 39 378 39 222 q 125 626 39 533 q 344 719 211 719 q 542 635 471 719 l 544 635 l 544 703 l 714 703 m 550 378 q 515 499 550 447 q 383 564 469 564 q 253 499 297 564 q 217 378 217 447 q 253 257 217 308 q 383 192 297 192 q 515 257 469 192 q 550 378 550 308 z "},"h":{"ha":797,"x_min":83,"x_max":714,"o":"m 83 0 l 83 989 l 253 989 l 253 633 l 256 633 q 457 719 322 719 q 631 669 565 719 q 714 465 714 604 l 714 0 l 544 0 l 544 417 q 419 556 544 556 q 289 490 332 556 q 253 361 253 439 l 253 0 l 83 0 z "},"i":{"ha":336,"x_min":83,"x_max":253,"o":"m 83 0 l 83 703 l 253 703 l 253 0 l 83 0 m 83 817 l 83 989 l 253 989 l 253 817 l 83 817 z "},"j":{"ha":336,"x_min":-4,"x_max":253,"o":"m 253 703 l 253 -76 q 18 -233 253 -233 l -4 -233 l -4 -78 l 3 -78 q 83 -19 83 -78 l 83 703 l 253 703 m 83 817 l 83 989 l 253 989 l 253 817 l 83 817 z "},"k":{"ha":746,"x_min":83,"x_max":765,"o":"m 83 0 l 83 989 l 253 989 l 253 439 l 519 703 l 739 703 l 467 429 l 765 0 l 558 0 l 349 315 l 253 221 l 253 0 l 83 0 z "},"l":{"ha":336,"x_min":83,"x_max":253,"o":"m 83 0 l 83 989 l 253 989 l 253 0 l 83 0 z "},"m":{"ha":1208,"x_min":83,"x_max":1125,"o":"m 83 0 l 83 703 l 253 703 l 253 633 q 456 719 336 719 q 663 614 615 719 q 879 719 742 719 q 1125 494 1125 719 l 1125 0 l 956 0 l 956 426 q 840 564 956 564 q 731 507 772 564 q 689 371 689 450 l 689 0 l 519 0 l 519 426 q 401 564 519 564 q 294 506 335 564 q 253 371 253 449 l 253 0 l 83 0 z "},"n":{"ha":772,"x_min":83,"x_max":689,"o":"m 83 0 l 83 703 l 253 703 l 253 633 l 256 633 q 447 719 326 719 q 689 481 689 719 l 689 0 l 519 0 l 519 429 q 403 556 519 556 q 297 511 338 556 q 253 371 253 463 l 253 0 l 83 0 z "},"o":{"ha":797,"x_min":39,"x_max":758,"o":"m 399 719 q 664 614 565 719 q 758 351 758 513 q 664 89 758 190 q 399 -17 565 -17 q 133 89 232 -17 q 39 351 39 190 q 135 616 39 513 q 399 719 232 719 m 399 564 q 263 499 313 564 q 217 351 217 439 q 263 204 217 264 q 399 139 313 139 q 535 204 485 139 q 581 351 581 264 q 535 499 581 439 q 399 564 485 564 z "},"p":{"ha":797,"x_min":83,"x_max":758,"o":"m 83 -225 l 83 703 l 253 703 l 253 643 l 256 643 q 456 719 339 719 q 673 613 588 719 q 758 351 758 506 q 672 90 758 197 q 453 -17 586 -17 q 253 68 328 -17 l 253 -225 l 83 -225 m 414 139 q 546 207 501 139 q 581 351 581 263 q 546 496 581 440 q 414 564 501 564 q 283 496 326 564 q 247 351 247 440 q 283 207 247 263 q 414 139 326 139 z "},"q":{"ha":797,"x_min":39,"x_max":714,"o":"m 714 703 l 714 -225 l 544 -225 l 544 68 l 542 68 q 347 -17 476 -17 q 125 92 213 -17 q 39 351 39 196 q 124 613 39 506 q 342 719 210 719 q 457 700 410 719 q 542 643 493 685 l 544 643 l 544 703 l 714 703 m 383 139 q 515 207 471 139 q 550 351 550 263 q 515 496 550 440 q 383 564 471 564 q 253 496 296 564 q 217 351 217 440 q 253 207 217 263 q 383 139 296 139 z "},"r":{"ha":489,"x_min":83,"x_max":472,"o":"m 83 0 l 83 703 l 253 703 l 253 606 l 256 606 q 472 719 313 719 l 472 547 q 319 501 376 547 q 253 340 253 447 l 253 0 l 83 0 z "},"s":{"ha":694,"x_min":21,"x_max":674,"o":"m 654 592 l 536 481 q 360 581 492 579 q 231 513 231 582 q 346 443 231 465 q 558 393 519 411 q 674 229 674 343 q 578 43 674 110 q 361 -17 492 -17 q 21 111 133 -17 l 149 210 q 351 122 208 122 q 450 149 408 122 q 488 204 488 174 q 375 272 488 250 q 165 325 207 307 q 53 492 53 376 q 143 665 53 606 q 364 719 225 719 q 654 592 551 719 z "},"t":{"ha":438,"x_min":7,"x_max":431,"o":"m 110 703 l 110 951 l 279 951 l 279 703 l 431 703 l 431 581 l 279 581 l 279 225 q 293 161 279 179 q 356 139 310 139 q 431 147 356 139 l 431 8 q 296 -8 350 -8 q 110 161 110 -8 l 110 581 l 7 581 l 7 703 l 110 703 z "},"u":{"ha":797,"x_min":83,"x_max":714,"o":"m 714 703 l 714 0 l 544 0 l 544 69 l 542 69 q 340 -17 475 -17 q 167 33 232 -17 q 83 238 83 99 l 83 703 l 253 703 l 253 286 q 378 147 253 147 q 510 204 465 147 q 544 325 544 251 l 544 703 l 714 703 z "},"v":{"ha":644,"x_min":1,"x_max":643,"o":"m 233 0 l 1 703 l 181 703 l 321 217 l 324 217 l 464 703 l 643 703 l 411 0 l 233 0 z "},"w":{"ha":1031,"x_min":11,"x_max":1019,"o":"m 214 0 l 11 703 l 186 703 l 304 225 l 307 225 l 439 703 l 592 703 l 724 225 l 726 225 l 844 703 l 1019 703 l 817 0 l 650 0 l 517 471 l 514 471 l 381 0 l 214 0 z "},"x":{"ha":669,"x_min":-7,"x_max":676,"o":"m -7 0 l 236 379 l 25 703 l 222 703 l 335 531 l 447 703 l 644 703 l 433 379 l 676 0 l 474 0 l 335 222 l 196 0 l -7 0 z "},"y":{"ha":643,"x_min":0,"x_max":643,"o":"m 643 703 l 413 -62 q 335 -196 383 -158 q 193 -233 286 -233 q 92 -224 146 -233 l 92 -72 q 158 -78 125 -78 q 217 -65 199 -78 q 253 -18 236 -53 l 0 703 l 182 703 l 333 192 l 336 192 l 468 703 l 643 703 z "},"z":{"ha":668,"x_min":36,"x_max":632,"o":"m 36 0 l 36 131 l 408 556 l 75 556 l 75 703 l 632 703 l 632 572 l 264 147 l 632 147 l 632 0 l 36 0 z "},"{":{"ha":1389,"x_min":0,"x_max":0,"o":""},"|":{"ha":1389,"x_min":0,"x_max":0,"o":""},"}":{"ha":1389,"x_min":0,"x_max":0,"o":""},"~":{"ha":1389,"x_min":0,"x_max":0,"o":""},"Ä":{"ha":1389,"x_min":0,"x_max":0,"o":""},"Å":{"ha":1389,"x_min":0,"x_max":0,"o":""},"Ç":{"ha":1389,"x_min":0,"x_max":0,"o":""},"É":{"ha":1389,"x_min":0,"x_max":0,"o":""},"Ñ":{"ha":1389,"x_min":0,"x_max":0,"o":""},"Ö":{"ha":1389,"x_min":0,"x_max":0,"o":""},"Ü":{"ha":1389,"x_min":0,"x_max":0,"o":""},"á":{"ha":1389,"x_min":0,"x_max":0,"o":""},"à":{"ha":1389,"x_min":0,"x_max":0,"o":""},"â":{"ha":1389,"x_min":0,"x_max":0,"o":""},"ä":{"ha":1389,"x_min":0,"x_max":0,"o":""},"ã":{"ha":1389,"x_min":0,"x_max":0,"o":""},"å":{"ha":1389,"x_min":0,"x_max":0,"o":""},"ç":{"ha":1389,"x_min":0,"x_max":0,"o":""},"é":{"ha":1389,"x_min":0,"x_max":0,"o":""},"è":{"ha":1389,"x_min":0,"x_max":0,"o":""},"ê":{"ha":1389,"x_min":0,"x_max":0,"o":""},"ë":{"ha":1389,"x_min":0,"x_max":0,"o":""},"í":{"ha":1389,"x_min":0,"x_max":0,"o":""},"ì":{"ha":1389,"x_min":0,"x_max":0,"o":""},"î":{"ha":1389,"x_min":0,"x_max":0,"o":""},"ï":{"ha":1389,"x_min":0,"x_max":0,"o":""},"ñ":{"ha":1389,"x_min":0,"x_max":0,"o":""},"ó":{"ha":1389,"x_min":0,"x_max":0,"o":""},"ò":{"ha":1389,"x_min":0,"x_max":0,"o":""},"ô":{"ha":1389,"x_min":0,"x_max":0,"o":""},"ö":{"ha":1389,"x_min":0,"x_max":0,"o":""},"õ":{"ha":1389,"x_min":0,"x_max":0,"o":""},"ú":{"ha":1389,"x_min":0,"x_max":0,"o":""},"ù":{"ha":1389,"x_min":0,"x_max":0,"o":""},"û":{"ha":1389,"x_min":0,"x_max":0,"o":""},"ü":{"ha":1389,"x_min":0,"x_max":0,"o":""},"†":{"ha":1389,"x_min":0,"x_max":0,"o":""},"°":{"ha":1389,"x_min":0,"x_max":0,"o":""},"¢":{"ha":1389,"x_min":0,"x_max":0,"o":""},"£":{"ha":1389,"x_min":0,"x_max":0,"o":""},"§":{"ha":1389,"x_min":0,"x_max":0,"o":""},"•":{"ha":1389,"x_min":0,"x_max":0,"o":""},"¶":{"ha":1389,"x_min":0,"x_max":0,"o":""},"ß":{"ha":1389,"x_min":0,"x_max":0,"o":""},"®":{"ha":1389,"x_min":0,"x_max":0,"o":""},"©":{"ha":1389,"x_min":0,"x_max":0,"o":""},"™":{"ha":1389,"x_min":0,"x_max":0,"o":""},"´":{"ha":1389,"x_min":0,"x_max":0,"o":""},"¨":{"ha":1389,"x_min":0,"x_max":0,"o":""},"≠":{"ha":1389,"x_min":0,"x_max":0,"o":""},"Æ":{"ha":1389,"x_min":0,"x_max":0,"o":""},"Ø":{"ha":1389,"x_min":0,"x_max":0,"o":""},"∞":{"ha":1389,"x_min":0,"x_max":0,"o":""},"±":{"ha":1389,"x_min":0,"x_max":0,"o":""},"≤":{"ha":1389,"x_min":0,"x_max":0,"o":""},"≥":{"ha":1389,"x_min":0,"x_max":0,"o":""},"¥":{"ha":1389,"x_min":0,"x_max":0,"o":""},"µ":{"ha":1389,"x_min":0,"x_max":0,"o":""},"∂":{"ha":1389,"x_min":0,"x_max":0,"o":""},"Σ":{"ha":1389,"x_min":0,"x_max":0,"o":""},"∏":{"ha":1389,"x_min":0,"x_max":0,"o":""},"π":{"ha":1389,"x_min":0,"x_max":0,"o":""},"∫":{"ha":1389,"x_min":0,"x_max":0,"o":""},"ª":{"ha":1389,"x_min":0,"x_max":0,"o":""},"º":{"ha":1389,"x_min":0,"x_max":0,"o":""},"Ω":{"ha":1389,"x_min":0,"x_max":0,"o":""},"æ":{"ha":1389,"x_min":0,"x_max":0,"o":""},"ø":{"ha":1389,"x_min":0,"x_max":0,"o":""},"¿":{"ha":1389,"x_min":0,"x_max":0,"o":""},"¡":{"ha":1389,"x_min":0,"x_max":0,"o":""},"¬":{"ha":1389,"x_min":0,"x_max":0,"o":""},"√":{"ha":1389,"x_min":0,"x_max":0,"o":""},"ƒ":{"ha":1389,"x_min":0,"x_max":0,"o":""},"≈":{"ha":1389,"x_min":0,"x_max":0,"o":""},"∆":{"ha":1389,"x_min":0,"x_max":0,"o":""},"«":{"ha":1389,"x_min":0,"x_max":0,"o":""},"»":{"ha":1389,"x_min":0,"x_max":0,"o":""},"…":{"ha":1389,"x_min":0,"x_max":0,"o":""}," ":{"ha":1389,"x_min":0,"x_max":0,"o":""},"À":{"ha":1389,"x_min":0,"x_max":0,"o":""},"Ã":{"ha":1389,"x_min":0,"x_max":0,"o":""},"Õ":{"ha":1389,"x_min":0,"x_max":0,"o":""},"Œ":{"ha":1389,"x_min":0,"x_max":0,"o":""},"œ":{"ha":1389,"x_min":0,"x_max":0,"o":""},"–":{"ha":1389,"x_min":0,"x_max":0,"o":""},"—":{"ha":1389,"x_min":0,"x_max":0,"o":""},"“":{"ha":1389,"x_min":0,"x_max":0,"o":""},"”":{"ha":1389,"x_min":0,"x_max":0,"o":""},"‘":{"ha":1389,"x_min":0,"x_max":0,"o":""},"’":{"ha":1389,"x_min":0,"x_max":0,"o":""},"÷":{"ha":1389,"x_min":0,"x_max":0,"o":""},"◊":{"ha":1389,"x_min":0,"x_max":0,"o":""},"ÿ":{"ha":1389,"x_min":0,"x_max":0,"o":""},"Ÿ":{"ha":1389,"x_min":0,"x_max":0,"o":""},"∕":{"ha":1389,"x_min":0,"x_max":0,"o":""},"¤":{"ha":1389,"x_min":0,"x_max":0,"o":""},"‹":{"ha":1389,"x_min":0,"x_max":0,"o":""},"›":{"ha":1389,"x_min":0,"x_max":0,"o":""},"":{"ha":1389,"x_min":0,"x_max":0,"o":""},"":{"ha":1389,"x_min":0,"x_max":0,"o":""},"‡":{"ha":1389,"x_min":0,"x_max":0,"o":""},"∙":{"ha":1389,"x_min":0,"x_max":0,"o":""},"‚":{"ha":1389,"x_min":0,"x_max":0,"o":""},"„":{"ha":1389,"x_min":0,"x_max":0,"o":""},"‰":{"ha":1389,"x_min":0,"x_max":0,"o":""},"Â":{"ha":1389,"x_min":0,"x_max":0,"o":""},"Ê":{"ha":1389,"x_min":0,"x_max":0,"o":""},"Á":{"ha":1389,"x_min":0,"x_max":0,"o":""},"Ë":{"ha":1389,"x_min":0,"x_max":0,"o":""},"È":{"ha":1389,"x_min":0,"x_max":0,"o":""},"Í":{"ha":1389,"x_min":0,"x_max":0,"o":""},"Î":{"ha":1389,"x_min":0,"x_max":0,"o":""},"Ï":{"ha":1389,"x_min":0,"x_max":0,"o":""},"Ì":{"ha":1389,"x_min":0,"x_max":0,"o":""},"Ó":{"ha":1389,"x_min":0,"x_max":0,"o":""},"Ô":{"ha":1389,"x_min":0,"x_max":0,"o":""},"":{"ha":1389,"x_min":0,"x_max":0,"o":""},"Ò":{"ha":1389,"x_min":0,"x_max":0,"o":""},"Ú":{"ha":1389,"x_min":0,"x_max":0,"o":""},"Û":{"ha":1389,"x_min":0,"x_max":0,"o":""},"Ù":{"ha":1389,"x_min":0,"x_max":0,"o":""},"ı":{"ha":1389,"x_min":0,"x_max":0,"o":""},"ˆ":{"ha":1389,"x_min":0,"x_max":0,"o":""},"˜":{"ha":1389,"x_min":0,"x_max":0,"o":""},"¯":{"ha":1389,"x_min":0,"x_max":0,"o":""},"˘":{"ha":1389,"x_min":0,"x_max":0,"o":""},"˙":{"ha":1389,"x_min":0,"x_max":0,"o":""},"˚":{"ha":1389,"x_min":0,"x_max":0,"o":""},"¸":{"ha":1389,"x_min":0,"x_max":0,"o":""},"˝":{"ha":1389,"x_min":0,"x_max":0,"o":""},"˛":{"ha":1389,"x_min":0,"x_max":0,"o":""},"ˇ":{"ha":1389,"x_min":0,"x_max":0,"o":""},"Ł":{"ha":1389,"x_min":0,"x_max":0,"o":""},"ł":{"ha":1389,"x_min":0,"x_max":0,"o":""},"Š":{"ha":1389,"x_min":0,"x_max":0,"o":""},"š":{"ha":1389,"x_min":0,"x_max":0,"o":""},"Ž":{"ha":1389,"x_min":0,"x_max":0,"o":""},"ž":{"ha":1389,"x_min":0,"x_max":0,"o":""},"¦":{"ha":1389,"x_min":0,"x_max":0,"o":""},"Ð":{"ha":1389,"x_min":0,"x_max":0,"o":""},"ð":{"ha":1389,"x_min":0,"x_max":0,"o":""},"Ý":{"ha":1389,"x_min":0,"x_max":0,"o":""},"ý":{"ha":1389,"x_min":0,"x_max":0,"o":""},"Þ":{"ha":1389,"x_min":0,"x_max":0,"o":""},"þ":{"ha":1389,"x_min":0,"x_max":0,"o":""},"­":{"ha":1389,"x_min":0,"x_max":0,"o":""},"×":{"ha":1389,"x_min":0,"x_max":0,"o":""},"¹":{"ha":1389,"x_min":0,"x_max":0,"o":""},"²":{"ha":1389,"x_min":0,"x_max":0,"o":""},"³":{"ha":1389,"x_min":0,"x_max":0,"o":""},"½":{"ha":1389,"x_min":0,"x_max":0,"o":""},"¼":{"ha":1389,"x_min":0,"x_max":0,"o":""},"¾":{"ha":1389,"x_min":0,"x_max":0,"o":""}}}
